<mxfile modified="2020-04-08T15:56:23.978Z" host="app.diagrams.net" agent="5.0 (Macintosh; Intel Mac OS X 10_14_6) AppleWebKit/537.36 (KHTML, like Gecko) Chrome/83.0.4103.0 Safari/537.36 Edg/83.0.477.0" etag="fe37mCitJheL7UJzxkvM" version="12.9.10" type="github">
  <diagram id="d1ab7348-05c3-a1e3-ca4d-12c340fd6b49" name="Page-1">
    <mxGraphModel dx="1426" dy="840" grid="1" gridSize="10" guides="1" tooltips="1" connect="1" arrows="1" fold="1" page="1" pageScale="1" pageWidth="1169" pageHeight="827" background="#ffffff" math="0" shadow="0">
      <root>
        <mxCell id="0" />
        <mxCell id="1" parent="0" />
        <mxCell id="ci61esdl0e_iwkSORq0U-163" value="" style="fillColor=none;strokeColor=#4D4D4D;shadow=0;gradientColor=none;fontSize=14;align=left;spacing=10;fontColor=#717171;9E9E9E;verticalAlign=top;spacingTop=-4;fontStyle=0;spacingLeft=40;html=1;dashed=1;" parent="1" vertex="1">
          <mxGeometry x="340" y="90" width="200" height="146" as="geometry" />
        </mxCell>
        <mxCell id="9" value="REST Web" style="fillColor=#4DA1F5;strokeColor=none;shadow=1;gradientColor=none;fontSize=14;align=left;spacingLeft=50;fontColor=#ffffff;html=1;" parent="1" vertex="1">
          <mxGeometry x="110" y="40" width="430" height="40" as="geometry" />
        </mxCell>
        <mxCell id="ci61esdl0e_iwkSORq0U-164" value="Conteiner Service" style="text;html=1;strokeColor=none;fillColor=none;align=center;verticalAlign=middle;whiteSpace=wrap;rounded=0;" parent="1" vertex="1">
          <mxGeometry x="385" y="196" width="110" height="10" as="geometry" />
        </mxCell>
        <mxCell id="ci61esdl0e_iwkSORq0U-166" value="Pod" style="text;html=1;strokeColor=none;fillColor=none;align=center;verticalAlign=middle;whiteSpace=wrap;rounded=0;dashed=1;fontStyle=1" parent="1" vertex="1">
          <mxGeometry x="500" y="96" width="40" height="20" as="geometry" />
        </mxCell>
        <mxCell id="ci61esdl0e_iwkSORq0U-174" value="HTTP/1.*" style="endArrow=classic;startArrow=classic;html=1;entryX=-0.005;entryY=0.459;entryDx=0;entryDy=0;exitX=1;exitY=0.5;exitDx=0;exitDy=0;strokeColor=#00CC00;entryPerimeter=0;" parent="1" source="ci61esdl0e_iwkSORq0U-171" target="ci61esdl0e_iwkSORq0U-163" edge="1">
          <mxGeometry width="50" height="50" relative="1" as="geometry">
            <mxPoint x="460" y="166" as="sourcePoint" />
            <mxPoint x="310" y="156" as="targetPoint" />
          </mxGeometry>
        </mxCell>
        <mxCell id="ci61esdl0e_iwkSORq0U-175" value="" style="group" parent="1" vertex="1" connectable="0">
          <mxGeometry x="120" y="128" width="60" height="60" as="geometry" />
        </mxCell>
        <mxCell id="ci61esdl0e_iwkSORq0U-170" value="" style="group" parent="ci61esdl0e_iwkSORq0U-175" vertex="1" connectable="0">
          <mxGeometry width="60" height="60" as="geometry" />
        </mxCell>
        <mxCell id="ci61esdl0e_iwkSORq0U-171" value="" style="strokeColor=#0000FF;fillColor=#ffffff;shadow=1;strokeWidth=1;rounded=1;absoluteArcSize=1;arcSize=2;fontSize=10;fontColor=#9E9E9E;align=left;html=1;" parent="ci61esdl0e_iwkSORq0U-170" vertex="1">
          <mxGeometry width="60" height="60" as="geometry" />
        </mxCell>
        <mxCell id="ci61esdl0e_iwkSORq0U-173" value="" style="shape=image;html=1;verticalAlign=top;verticalLabelPosition=bottom;labelBackgroundColor=#ffffff;imageAspect=0;aspect=fixed;image=https://cdn1.iconfinder.com/data/icons/hawcons/32/699144-icon-68-document-file-app-128.png;dashed=1;strokeColor=#4D4D4D;fillColor=none;" parent="ci61esdl0e_iwkSORq0U-170" vertex="1">
          <mxGeometry x="8" y="6" width="44" height="44" as="geometry" />
        </mxCell>
        <mxCell id="5bCI0pZCHstF0WeuNgfC-142" value="" style="fillColor=none;strokeColor=#4D4D4D;shadow=0;gradientColor=none;fontSize=14;align=left;spacing=10;fontColor=#717171;9E9E9E;verticalAlign=top;spacingTop=-4;fontStyle=0;spacingLeft=40;html=1;dashed=1;" vertex="1" parent="1">
          <mxGeometry x="350" y="350" width="200" height="146" as="geometry" />
        </mxCell>
        <mxCell id="5bCI0pZCHstF0WeuNgfC-143" value="gRPC Web" style="fillColor=#4DA1F5;strokeColor=none;shadow=1;gradientColor=none;fontSize=14;align=left;spacingLeft=50;fontColor=#ffffff;html=1;" vertex="1" parent="1">
          <mxGeometry x="120" y="300" width="430" height="40" as="geometry" />
        </mxCell>
        <mxCell id="5bCI0pZCHstF0WeuNgfC-144" value="" style="group" vertex="1" connectable="0" parent="1">
          <mxGeometry x="468" y="386" width="60" height="60" as="geometry" />
        </mxCell>
        <mxCell id="5bCI0pZCHstF0WeuNgfC-145" value="" style="strokeColor=#006633;fillColor=#ffffff;shadow=1;strokeWidth=1;rounded=1;absoluteArcSize=1;arcSize=2;fontSize=10;fontColor=#9E9E9E;align=left;html=1;" vertex="1" parent="5bCI0pZCHstF0WeuNgfC-144">
          <mxGeometry width="60" height="60" as="geometry" />
        </mxCell>
        <mxCell id="5bCI0pZCHstF0WeuNgfC-146" value="" style="shape=image;verticalLabelPosition=bottom;labelBackgroundColor=#ffffff;verticalAlign=top;aspect=fixed;imageAspect=0;image=data:image/png,iVBORw0KGgoAAAANSUhEUgAAAH4AAABCCAYAAACRm2JeAAAUmElEQVR4Ae1cB3dbx5XOT9nY6s2SWyzJRbYly91rxyWuOfa6bdaR7bWze7zexD2xvdlVIkc+LnE2RSRIkOiVBAmxgVUsokhRIin2ClYUAmCRvj3fiAM9gABIQCStLPHOmTMo783cud/cO3fuvfN+gPS1JjnwgzU56vSgkQZ+jU6CNPBp4NcoB9bosNMSnwZ+jXJgjQ47LfFp4NcoB9bosNMSnwZ+jXJgjQ47LfFp4NcoB9bosNMSnwZ+ZThw4cIFhGbn4AmF4J4KYNA/hX6fHwO+KQz7pzAeDCI4M4O58+cTEnD+wgUEZmYwOhXAyNRUghIQ90wEQ/BNT2N6dhakIdHFtv2haYwtoW3S6w1NC5rPL0JzdJ+kY1rBiwGfH32CH1OCLxybf3oas+fPYxGSo5tO+vuKS/zs7Bzqu3vxZXUdXjDYsF+lwx6VDrerdPhJrhEfl1aipO0cvIFgQuID09OwNzbhkNGGV/RWvKy3xChW/LPRhjcs+fjEVYPsUy1o6u3D7NxcQvCnpqehKq/Cm+a8GG2yHyteMVjxmjkPvypy4buGJrjazsEfDCIZ8Gfm5nCypxdHKk/gGZ0Ft2RqsSvbhBtUetyTpcebdic0TS0Y8ngXFYSEzFrCnysGfGh2Ft2jY3jveBnu1NtxrdqMLSo91mfosC5DJ+pNmXpck23EXo0Vh/KcqO3tw0wcCfUHQ/hjRbVg0jaVHlsyY5etKj22qQy4Rm3CDbkW3K6z421HERoHhuANhWKyhL9/bC/AnhxTwnbZ9o5sI67LMWOv1oonTA4UtLZj1D8Vs135I7XZoNeHI64qHNDn4Tq1SfCCfLgqQ4erM3TYkKnDtiwDbsy14FmzA67ObniDiYVBtp9KvSLAU3Wf7BvAa45iXK82YX2mHv+QoYtbfpihExPgWWsBClvbBUDR6tkXDOKr8ipszdSC9ydqT/kfmcqJ8KQpH/ltHZiMoVkmgyG8Z3NgV7Zxye2Sho2Zetynt+FYwymM+P2ItaBQI7SPjuGDkgrclGNelBeknQLyiCkf1rPtF5eUFdD7yw4818uu8Qn8oqgclOhkQNqkMuB+vQ0NfQNiPVfO5FSBl5OAE+AZswP1/YML1GgqwCvbvUNng+n0GVDLRU9YTzCIIxU1+FGOecmTim1vIviGPLSNjol2lbxYjs9JAc9BXSzxuw7NzCCj4RR2q00LBspJcHWmPlyuylwouQToN6UV6Pd4IzqJB7yyzXWZerCwD6rQ6ElHyf+w2AVPIABOUHnFA162LdtVti2BZ71RpcczlgIMeX3gOi4v8qq8vQP3G/MEPcpnlG0LemPwgsvK+0UujAUCMbWJ7CeVesnAc53qHhtDeds5jCVY03onJvGc3YkNUeqdavGWHDP+1VGE3zpL8a6jCA8a87ExMxIgMuQOrRWV80aZHFQs4Hkv1/IPCorxu6IyHC124XBRKf7TWYoHDXnYkRWpujkZaG9Ud3RFABQP+D3ZBnxgL8DXRaWi/L6oDIfyi7BfZxN2igSS7XLd19Y2YHJ+XSbotFfeL6vCDVHSzrX9llwL/s1RhK+Ly/BJYQkeNOZhsypySSQPD2rMaBocWnapXxLwBH3E58cvi8vxU5sThe2dCM7MxpyF1uYW7NfbI6SNKvwxYx7y2zvRM+mB2+cXEl3Z249D9kLsVJsi7t+eZcCXlScijLF4wN+ktaJuyI0Bjxdjfj9GfX4M+nw40dePd4pcuDY7UvMQhKPVdQjMzMo5hVjAc1Ldq7Ggum8A4z6/KGyb9NvaOvCEKR/rFUBtyTLitTwnBrnWX7gglhP3pAfPWAuxVWWI0H6355qR2diMPtLs8wtNUdrRheftTqxXCAIn1HaVHvkd3WI7HCZ4GT4sCjwHQcboW1qxJ9cCgvKspQBn3CNivxlNwx+q63BTriVioLtzTFA3nxWGCtuTF9fElqFh3KOPlCBKxC9KKsU+X94bE/hMHfbo7Gib9CAwe0nF8hkaVTV9A3jM7IigZVuWEYeOuzChUPfxgH9Ib8Pp0XFJQrieCAaRceq0MEgJDiV/g8qAuwx5aB0dE6BT5bcPu3GfzooNCmOUE+pQYSnao9r1BkPQzLd5tULtcxn444l6uBNo2TBhSXxYFHg6QGp7evGQ3h62SGn9flBcLizkaMfLB9UNuC4K+Ef1NlR39y4gi89O+v14xVYotlFSdbJ+8bhLSJd8KFng+RwdRO+Wn4hYX2lw/sRgR//EZFjdJws8J2xtVw9uzjGLbRjp5fq/V21ETXcPpmdmhKPm9NAwDmgsWJehDU8+TurDJ05iLGp3MTd3Hq1DbtyqtWGjQkNclanHbwqL0T/pkaxYlnpR4DvGxvGWs1RsXThbOUjOyD05ZphOnwU9ZMrrP6rqsSsnUuKfNuXhZG+/8jbxmVLpDwTEusm9uRL45wtKwL7llQrwBPRwVZ2QOEk7pe/+XBM6FNZyssDTIXR2YFDYIrRdBE8ydLhepUNxewfobKK3snloGPsVwJOGTRk6fFN7MmwLyPFRE9KTd6fRgc0K24QG8If5TtB2Ws4rIfCcuer6k7hfZxUOF8k8ufY8pbeioadXGDGSKAK/Mwr4Z0z5aOyLATzdsMEg3nOW4s4cE3ZnGcLlTWcZescnZLNIBXi6ib+qqcPmDG1Y6ilxd6kNaBsZFUsPO0gW+Lm5OXQMu3FAZxPbLgn8rkwdClrPYSoUH/jNmTp8V9e4AHjSQZftUzYn9mutuEVtEuW2HBOOHC/FsDdylxNmTIofFgW+vLUNvz1eiu0qQwTzDmQb8GdXBc72D6QMPGc5Ld/qc50wNDQit+5kuNAl6lGow1SAp0fu65r6BcDvzzGh9TKB7xTA20HDVQJ/TYYW+Wfb4Q+F4kq8BJ77++iLsYjS1jbYm07D0th8sZxqRnNvn2gz+v7L+Z4QeDZMYIpb23Gj2iT2xxzkpkwdntLbMDzpiQCd9ycj8ckQngrwlOQvquqwUbGnp8QfUBvnJf6iZZ+sxFPVt1ONR0m8AL41deCT4cfl3vt3DTwNn73CqvcusOrJmLFgEB9X1wtfuFymuMY/oDGjc3RMRO54X7LAUxgY/NmnsQjbR0r8tZla4XKeSlHiLxfMZJ7/uwb+hwm2c2QC1fnLjuIIH8FmlUG4bgc9XhG1SwV4hk65ljMOQU8jgV+XqcOPsvRwdXQimMC4S6TqkwHucu/9fwc87YbZ2VnhJPpLfSNui9paMhr4TnEFPMFQ2K++VInnLsQXCglr/S1nGTiJpCZhIOo2jQWN/YNi+Ytn1S8VeI5jqSWVSZAS8Awh/lhrQcPgEDomPOjx+sLl56XV2B7lp5dWPV0303NzcAeC6PH50U1PWJwyGgwhpPB7x1zjM3S4UWOFa9CN1kmvaK/T40N9bz/+q9gltlsMA1MiWQjS7lwLMutOCuNLMiwe8Ac1FhT3DYp2SWv7+ASMjU34J1shrsm6ZOyy7U1ZBjxqKUSPxysASwX4GYZv/VPo8vjQMeldWvF40enxos/nF1trJnEs5UoJeDJw3TEttv8tBztEycWOv10sG44tDJtK4OfOXxDZN49bCrA9y4ht2SYxSThRWHaoTcL3Tv/7vzjL0LnIPl6CyX0vXaZbs03YlGUE975SEiXorGnY0dXaMTIa4XWMBTzvpw3Bttnulmwj1qn04rdYbTOg8kWJS2TxkPGpAD8SDOFeS6Hoj30nU27NNuBIVa1wW68Y8JLhV4n9MffIl0ospkjgORv7vD4RkCAI9AcQpFjlhSU4cCSo7FNZ5O/R9T6NFcaW1gWu43jAy3HKtqPbk98ZQn3UYEf3xGQ4mJIK8O5gCHdbCrE5ibwASQOXmoM6G+xnWiMij/EmwaISz61LRUcX9tIDFRVxk50uVkcD/4AhD1cdu+TGjPU8PXfnliDxsZ5V/kbQaHjdqrHgq5oGERzi2qm8EgGvbCvWZ2blPGzMg7X1nMghkOHe1QaetDHR488nm5cHeA6ke9KL52xOEZTgdohqPl6RQQslkyTw9M33e334R4MdG49pwm3EemapwAtg51O5qEWklS37Z2hzX64ZWQ2nRBSMBlr0FQ/4S21rsT5Diw0ZWuFyZVz/WnrWtFa8bHeisrtPGH3K6ZQK8FT1D1gKw3wmr+MV2i7RY2Xk8duGZQKeTApMz6CyswuvmOy4R6XFHRm5uD0jJ2bZrnCPSuYrgR/y+fGq0YY7j118ft+xXGw7pgl7BeUzSwWejNmn0uIA6VJpsVMR2WJbDCh9xuSLOPl2HF884Omoui1Ti7tUWhzM0uK+LB2eUOvxc3MejlTX4Tjz7by+mAmXqQDPuAdDuz/WmHG/2pCw3J1twC5VZIbTsgNPqWdEiqnFTJEenpqKW94oq8EOdWSakQSeEsF1ngNk5GzQ50fX2DhesTlFnpkEnfVSgKemuDnHhNohN3o9PrSNT+DDitoIhw23XE9bneib9IARsFhXLOAp7fdoLajoH8KwGHNAjH1kKoDxQBAekWI9uyCNS7afCvBzDIGHQhgJXOQzeR2vcKw/yy+OSAhZduDlYJZSJ+OyldG51x1FIiEyFeDpPeuYmERwdhZT0zMwNZ8RWy3Gsdke7RJmz1b1DcA/PRNzCPGAjxePj9lI1I+pAB/VRMKvDOu+7XRhvcJWWjPAc41TAs+o2dlht4huyeAJJZefv6mujZvMsPLAX/IjLNWBkxB1uqPXMvBU9UrgyazRQABv2wpE/rvUIJT6Z4124YCJtuj5zMoDf3EHw0mYBn4+PYqJGMul6gki1TnVPQ8mkNEEnxPkBrVJ+NeZBRx9pYGP5kgK37/PNZ7k8mxa6/AI7tPZwmlRQt1n6nG4ul4kO0QP60oBfmpmBtkn6vFNWQWOlrhE+bLEhZLmFpESTrppaHcODuFoaQXu0VgidkM8iPGcwY4/l1fBPe86jh6r/L6oA0feuNT6+waeBuPk1BRedRRjR9al7FaC/1J+Ec64RxcM5fsAXqZhK4lhGPkxSwH2ZBvBEC/L9Zk6fJpXiIH51CsCP+73ixTym7KNYa0mDFnGItQmfFtehfGpqXAQStmH/LzswL8bJ+euIU7OnW8+544eMLkms36+oBQdY4lTr2Kt8RwYmcODiQzIKNu8U2OBs7Nnwb57NYHflKHFt7UnMaHILpJgDAeCOGhemHP3K5sDPYqcO9opld29eMRSIBJg5ZK2NcuAn+UdxwATZBQBLtm+sl524D+qWZhl+4jOhsquHmW/4jM9eRN+P160FgijRwnSS8fLRaRLPhQrOhcPePoLys914G5jfgTw1AD/XVohTrkqjbyVAJ5LTsuQG3dpL+YryrEx4/bwiYaFWbbnz+PcyCj2iayeS5qKgZpfFxYLP4TkBWueTzQ1t+DWHGZGXbRj6Apnfj75uti17MDzOPTu3EgHDg2rvzY0iSREJcO5967vGxApTEr3I92R/15SAffUpVOoyQDPQQ95vXjZVihO6kim87DCExYHeicnI5izEsBT4jrcI3hQZ4uggdL5an4RWqKWHJ6M1TY2Y2e2QQApaeaO5LvaBoxE5dVTqzHX/nBVrdjB7M01Q1XfGPNQaKxJsOzAO1rO4kDUSZoNKj3u1dmQ1dSC1rFxcYKkc2ISee0d+KnFIQiX6ooDZqz72+pa4f+WRCcLPFOcj1bV4lpFpIt93KK1wdpyVuQFyLZXAnhK3ajnYoyDx58lkKx5wISANQ27RR5D29g4dM1n8JRQ3ZdCytRoO7MMYnmKdcSbuQ3t7hG8ZCvE/5TXoGticsEyJscYXS878DwH/qL9eDjtWA6Y0nZdthFPWwvxVp4Tz9uc2Ec1GBU7JzgML9YNDIVTo0h0ssBTszi7ekUKtKSBNV9E8JGrWrzVQmqflQCeAUBGNj9y1YitpZIGAsoYwkPGfHGU/ElrIW7WWEQKu/I+hnsf5olZ9+iCpFYJJDVL68AgBicmwiFh+V+ietmBZyKitrkFt0Spe+WA4n0m6Ayh/r7yBBjMUV6xgI/23Cnv52cez3rBVhghbTwA8YQxD308STN/7GolgGf/nFhVnV14wJgfse2KN/7o33kQ87uaOhEXiB7b5X5fduA5WB73ea+sErTUObujBxTv+5YsAx4354NHjxgUUl6xgI9n3MnneEDhk8raiJM0fOYmtUloFL4jh9dKAc+2eSbui4oa7I46MRuPB/J3GqKv2wrnj14vbqzJMS+1Xnbg2TFBa3WP4JfFFdiTy/NlkVs1OThZEwxmrPINGjXdveIFQFINy4GkAry0fBk7l0Eb9rk1y4gjpRVh3/1KAk+/QufYBD53VeHmXIvghdKekTyQNf+jXfKGoxj188tdNC8kTy6nXhHgSRDXHr7E5w/lNXjIXIDdGosw4uir5gEHxrp5Xo4RpYOGPPy62IWWYTcYaIk1UJ5O+VPlCexRG8X6yGxZMugBvR3dk56I5EnJEMH08Qk8YswX/fAZlhtyTMKo5JFn9kXD6VOHE7dprdilNoXL0+Z8EeqV7aVa09Ab9vnxvzV1eNjswB6NBTuzjdgieHEpueP6HLMwjD8tKQcNPm4JV+paMeAlwRw0jwtrms/gHUcRnswx4iG1Ho+p9XjdnIc/NTShia8+mVe78rnomj52vpTh82IXPi4qw0dFZfi4yIWjFdViqzMTJ9bONGpd/Sl8VlIunuFznxS58LuySrHd4kSjZnA0twinz2dlVWD5vKwaf609ucDWiKYrme/kRefQMHSnz+J9Zyme15jwiEqLx7N1Irnj2xMN4q1YfAtXrMmfTF+L3bviwIvki7nzoB+aSQYMJ44EAhgNBEVih296RmytuC9NdJERlAC+Y47ZNGyLNddp8V64OA8zuYFn0pg4wWeUz1ErsVu2zeWJbfE+WUjzUtOV43S/4Gda+pIe8oJ2CCOKTHIR7+Wbm1tSztyChpP8YcWBT5Ke9O2rxIE08KvE6CutmzTwVxoiq0RPGvhVYvSV1k0a+CsNkVWiJw38KjH6SusmDfyVhsgq0ZMGfpUYfaV1kwb+SkNklehJA79KjL7SukkDf6Uhskr0/B+u5M+6AaaohAAAAABJRU5ErkJggg==;" vertex="1" parent="5bCI0pZCHstF0WeuNgfC-144">
          <mxGeometry x="1.3600000000000136" y="15" width="57.27" height="30" as="geometry" />
        </mxCell>
        <mxCell id="5bCI0pZCHstF0WeuNgfC-147" value="" style="group" vertex="1" connectable="0" parent="1">
          <mxGeometry x="320" y="386" width="60" height="60" as="geometry" />
        </mxCell>
        <mxCell id="5bCI0pZCHstF0WeuNgfC-148" value="" style="strokeColor=#CC0066;fillColor=#ffffff;shadow=1;strokeWidth=1;rounded=1;absoluteArcSize=1;arcSize=2;fontSize=10;fontColor=#9E9E9E;align=left;html=1;" vertex="1" parent="5bCI0pZCHstF0WeuNgfC-147">
          <mxGeometry width="60" height="60" as="geometry" />
        </mxCell>
        <mxCell id="5bCI0pZCHstF0WeuNgfC-149" value="" style="shape=image;verticalLabelPosition=bottom;labelBackgroundColor=#ffffff;verticalAlign=top;aspect=fixed;imageAspect=0;image=data:image/png,iVBORw0KGgoAAAANSUhEUgAAAGEAAABeCAYAAAAzKnrbAAAgAElEQVR4Ae1cB3dTV7Z+P2V6fTPzJplkes+EJPQSIJBACKGZ3nsPLSSQAKbYGGOKKzbuvRdccMWWZPVqy7IsyZKs5va9tbcsI9lywdTM4q6lZUn36pT9nf3tcvbx/+D19dIl8D8vfQSvB4DXILwCi+A1CK9BeEESGAQGBwbQ7/Cg3+ZCf48Hg339wOAL6n+Cbv6rNWFwcBCDvf0sdHenDcaCVhhj62HKFKJH04UBZy8G+wcmENHzv/1fCwIB0NvjRk+LHoaoWsjX3oNo3k0IZ0VANDcS0rUJMKa1wG2wYXDg5arEfxUIJMx+uxsOhRGd95ugPpEL6ZoEtC68BcH062iZFoaWd6/xX8GM6xB/fBfqozmwlMnh7rR7teIl4PHdB4Eop68fHlMPrI06dMY0Qrk/E60f3YZgZsRjwZPwg7yEc25AujIOum9LYavVoM/qeuGa8Z0FgVb9gLsPfd1OOJVdMETXQRqSAOHsG0GFPawB74dD8H44Wqb5gTLtGoQzIiALuQdzvgR9FicG+16crfhugjA4iH6nB9Z6NbRXyyBeGQvhjOtoeW+IboKseMG71yCaGQHR8rsQL4+GkIAY+dx7YRB/Go32qGo4tWb2qJ6/WcZ3J1gjQ9tHfK/sgiVPBNXhLEiWx0A4/yYEH4xY2UPCFUwLg3BmBCTLoqE+noOOIhGcShPs4g4or5dDujwGZBv8wRBMD4fowyjIQhLREVkNl9qMAVffc8XildYENrSuXrg7rLBUKtB+owqK3WkQf3KXhRts5Qve8wpevPQu5NtSoL1cCmOxGM42M/qcHl7dA739cBvt6CoSQ/lFDiSfRHs1yY+iCFjRwihojuTAnC/mMbA7+xwM9ysLAgVWHr0VlioltF8XQfxpDLuXAVzuRye86ufcgOTjaKj2ZkCf0gibpAO9VicGBoLze39fP5waMzqSG6HakQrRgiivVvm3+0E4xMui0Xa5jL0uNtzP2F68kiCQBlgrFVDuTYdw7jiGloQ17Rpo9Utm3YTyUCZMpVK4u3tA9DXZa6CvH442M9qvVkC66C4IUH+Kovfk4ko/j4MhoRG9JgfwBO1PNI5XDgRS+T6bC+oz+RxcBaMcn4Ao8BJ/FgPV6Tyosxrg1Hejn6LgMVb+mMIYHARRlMfcA11yA2Trk7x056cRFGMQRbUuugXNV4WwtbSj3937TMB49UDoG+CVJt+R4g2w/ATBlDPjOloX34Z8Ryo0kQ9gqlbA2W5Bb48LA0+ZgiAN9Fgc6K7XQBdWAdn6RIjmRLKm+YCnRSFacJPtjSGu3mu4nQTGmBBPeOOVBIECL+lOAsHPjST3celdqA5kov1uDaytevTanE8t+GASInrymB0w1SqhOV0AMRluCvz8F8SQVmhPFcBWqoK73TqkGcFaHP+7VxKEXnMP5HvSAjRBMCsC8tAi9OgtIINK9PG8vBWfyMiuOI02GDNbIN98n4EYGegJpl2DaPEtpkSLqG1KQd6rB0L/AHotDsj2pwX68LMjoLheCkenFboWFaTJTbAojOhzP18fnoCmwNCm6kRbZCWk6+6NjsrJLZ4XCeWedLh03Zy59QE5mb+vBggUiLl74ep2oqfDyrwsP5AxAoTrkIWXoMfQDWWNBA8OZ6DufCH0NSr0OjxP5A1NRjABz7Dh7uP8VHeTFprTeRAvuh2QlxK8H8YJQUudGv2u3oCfT/ThpYFAqt7v6YPL3AOLrBOaMglaE+qgLhYzH8sOBYLQPOs6FNdK0NPRDVWNBKU77qNo0z1Un8iBKlcEi9wIT4/7ue8PEA3apQboLpZCOCfyMRBESwtvoatCxptHEwne//4LBYEETx5Mv7sPbqsLhtY2iOJrUXksC8VbElG2JwWS+w3sKsqPZEIw83FKoXlmOGShhXB0dENdJ0fpzmQUrI3jV9HmRNScyoW6SAynqYftxbP04/0FRu/JJpmaNRCviPEmA4fiFUp3dJVLX10QCIBedy+sWhN0ZTI0XilD2a5kFK6PR8G6OOSvjUXprmRIEhu8dHQ0KwCElhnhUF0ogtNgRbtAg4oD6ShYF4/8NbH8W2qjZFsSmq6Wo/ORDn2evudGUQP9/TALdZCsjA2IsCniNpZK0N/jHonbuJ9fiCZ4HG4YhG0Q3qlB1RfZKNuTylTCwichDr3KdqZAcq8Bnm4H5MdGgDA9HKpzhUxVRDvaGjnqviliweevjeM2qD3SqMojmWiNqUWXuAMeu+uZg8EgiNogXRU/AoSbMBVLeTt1XKmPuPncQSANMDTrUHs2nwXkE5hP8EQphesTUL47FQ2XStFepWD/X3EyG+SWDvvmBMJX+ejtdrJQe50emOUGiBMbUHU8G8WbEpmaqF0GY2sSak7nQp7RDKvGBPL9nxVFEaVaxO2QrbkXCML8mzAXiNFv94wQ8/gfnzsIlDyTpTUzh/sE7xNU4YYENrA1x3MhTW1Et7oLHqebo1/V2XwIZvuB8EEYVGdy0WdxDM+IAHZbndDXq9Fwvhgl2++jIGSIooZoigz4o2vlsPqyqE8ZVVPnNKduiR6ydYmBIMyLhDmXQHjF6IhBSH2Ekh33h2mHQCDaqDqbC3l2C7rbTOyisuEeGIC7x4nWs9loGQGC+nQe73oNo0BvBsGr3GbohiipHuUH0oY1gkFfG+v1ok7mQPdADpfV8dT0RHOySjsgWx+oCcK5kejKFr56IFA+Rp7Z8lgT1saiZEsShMl1sOu7uSKCqIIAYJkSCE4XJOfzIJjjl0F9P4w37vvMzgAMvD8axEDfAGtFh0iHR+HlbCt8WsGUtyEBZbtTUP9NEQxN2iF6Gt3UZL4hEGxyA+QbkwJSKwxCWgvXNk2mHd8zz4WOSKAUA/S6ell1lblC9ny8KzMOZduTIS8WMfX4A0CD4iSayw3ZhQII/NPY74VBfSwHfebHdOSbhO8v9dvn6oWt3QJVQSsar5SifE9qAEUVb01E09UyOC09U97Qp356lEYotyQHpFYIhM6kJi4W8I1pMn+fKQiD/VTr44G9rRtaSn5VyNHX2wdVvohXoQ+E0u3JUBQL0dNlh75RC4fBhj6X16X0guCB4lIRBPMiHxvm98KgOpLtzeVPMDNeBL19DIYktQnl+9OGqZCMNnloJnUna88ETQW9Te07NSYot6cGgjAnEp1xDejrdgX93VhfPhMQaFCUY/FYXVAXiFGyORnpc2+h6lQBPC431AWto0CQFwhgkhhQvjcTVcfz0PmojVcxqXqv2wPllRLOxwx7R9PCoD6UDY/RPtZcgn7v6LJDEF0zbCeImig4NCo6vJQU9Ffjf8kg6CxQ7BwJwg0Y7taOtlvjN/d0G/00GMr5WORdUGQKUbE/Gynv3cC9P1/B/X+Ho+p4PtwON9SFYo6GhzVhWzIUeUKYxAYUb0lB0j/DkLUoGqKYetYij8sD1bVS3sT3B0G1PxMug22CKQXepghaGP8wEISjmTDI2qcMAvXgbu+Gcl96QH6Lapg6bj18cSB47G4YGnVouvwARSHJSJsZhcS/XkPc7y4h9o2LSPpHGCoO5cBld0JdLEHZ3lQvJQwZZkXOEAibUxD/+8tI+ONlZMy7jaarD+Cw9kAVVjYahH0ZvHsWKObxPxH3CxPrAkB4cCQTeonuqUDw6G1QHswcDcLN6hcDAgUrZmknijYkI+nvYYh7yyv4uDcvIf73obj/7+vIXRaHR9er2PhqSqQo9wOBAitpWhOsKhNqzxYjZdoNxP/hMhL/fg2lO9NhM1mhDi+HcMHNYZtAu2qqvem8Fzy+2APvurodaE2uDwThcAbaRBr09/YHPvwEnzwdNiiPZHHRmE9bqfCsI6JqXOchWBdTsgmUgNMUyljYvpUf91Yoa0LG/Nuou1AKfZ0GLps3utWWywNAKNyYgNb79XCaHbCoutB4qRyZH95F8rQbKNnlBUET8YDrf3wTJBCUu9JgUxmfKPIlEMSpDcMgUMRecTAd2mbl04FgsEF+fDQI+rAHLwgETz/aShVIfieC6Yc0IH3WLQju1MLWTr6/x7vzRb7/4CDaKuUo3zfkoayNReHGeIiSajmvQ/59n4NSEEY0RVSi5usi2M026KKqRoEgW5sAU4WMYwuyR5O5KDiTpDV6k4RDOSoK6NSNMvT3Tn1DyEMgnMgJ2PYkTWi/WoE+qsZ4gmtqmtDbj7YHKiS/6wUh/nehyPskAV0Sg9ft85fPINBWrQh0EzfEQ3jvIdz2x64cxRVkREkzKNuqj6mDaNGtYToijSDDJw9JhJ4q4/Td3pT1BJOltIY049HjjOuaWJTvT4WqXvLUIEhPZY8G4XLZiwGBNjbaq9RInvYYhIIVSTApjcOR77BsCISHSk4nsHdECbYN8RDE1wSAMPw8BWyDgzAXS70JMippH7HBLv7oDjQXS2Br1PJW6HglLgxCZrM3YFvrzdiW7UuFrk76dCB02iA9M0ITZkVA920Jert6/Kcz4fspaQJFufoaDRtUMsqkCQWfJsIo6xgdhQ4C7XUqzv8Pg7A+Hi2xNXDbHmvCyJHS4Y2OhAbIVyVw5R0VeAWAMf06ZBsS0ZZYBzqFM9apG+pDlt0SCMLeVKhr5Oj3TMEwcyn+AFw6C8SnRtiEWRHQnClA7xPGMlMEYQCGOi3HBD4QCpclwtDaHhyERjUbQ38QmqOr2XCPFL7vM+/A0Qa7SA/114VcazQKiPfDIJp7E8odqX6nbgJLHgkEea4ABevjefOHxkD7GepKKadWfP1N9i/ZkR61EZ1JjWhd5bezRnQ5M4ILj8lePMk1NRD6B2BobEPK+5HsnpImFH2SCL1QFxQEXZMS5Yf8UgchcWi+UwXyXMa6OpvaoMwRoau1A842CzoKRVDsSoNoflRgmeJQAXDr0jtQHcmCqUrO9ac+w02bOsoCEe/g0e6dF4QUqCokkwNhELxxT0XJxnIJdKFlkG9I8h5CoYpu/yLimRGcWiH39UmuKYFAHGx81I7U6TdBrqkXhCToHqmDgqBpkgeAkL8uDjVn86Bv1KCPq9f8Lbl3+MrcVhSsTkTZrgwoc1phVXehu6UNHbcfQrkzjc+djdQMMtx00EMfVY0eiYH3emnzh+jwwcF03jwaBqG0dVwQKIfFpS6SDhjTm6E5nc/bmaJ5kY/3lf1sFTsOs29Ad774xdgEGqC5pRPpM6OGQShceg+aBkVQENqEalQezwxwE6lS4uGX+dA3qIdc1cfpbIJBnilE2uwoJPzhMtJmREGS+AjubidvHfa0dkBzOGfoLJpflR4V7lKZ4rybUB/IgLlKAU9XDxydNmiKxag8lImizfdQvi8VyhLRaBCGalLpHARRiqVKAcXeNAgXRgWWQo4Qfsv74VyLJP0sDpYXtb1JIHQJOzhJx5rwZigKFidAWS0dDQIAu9GKxutlKNp4bzibSSuS8v2U4ZSkNKJbYwoInhTZIqTPieIUCAWEBSFJ6FaYWE2of1e7Be1RVd6Kh2BV1NPCIFl2F/qISj5YQhv/HQ0aNF+v4DIZRZFwFAi0d9wj74Q+vg6tO5LAq36EQ+DvHPDqJ9A/ug3Z8Sx0FUo45vFR4WQpaYp0NIguUQcyFtxB3NuhiH8zFPmL4iCtEAUFgbypHoMVrYl1HLRRhQXz81ovEFQlUXUsG9LMR7B3dHNZjEHQjopdmUj+j9cNzl0VD7PMODwvOizYa3HC0qiB5st8rlMddeqGDnp8GAXFlvvozBbA0WZhreiStKNT0j5UftPL3pXloQqaC8WQfh7Pv+FymzEA4Orshbcg354CdUINrGI9UxCdqaAF8qTX1EAYHOQMaNbiaAaBIubsuXchzGn0ruYg46A8jcNkh75WDWF0DR4cykDRxoRhzSBgaOeLNlxos9+qNcMo0kMc14jCdfdRtCWZo2r/CdKKo2o3l84Mc7EE2lN5EC+9E8jZdChw6MiU9lwxTMUS2JVGONotMDdq0BFXB9UXuXyumUoZudZ0JN0QzRGgC25CujoemrMFMGa0wEbVHHQIhXJQQebsP9bx3k8ZBFqVuZ/GI/7tUMS9cYlT1w8O57CGUIaVi3WD9EyuJ3lFuhoF6s4VomR7UoCtoM3/iv1paL1Xx7Wmdr2VPSRRfD3sHdZRLVJ7dAzK3e1Aj8IIfUwtZGu8pzhHGW46u7wiBvKv86C68QDSDfcgojNvY6x4ppuZEeweKzbdR1v4A5hrlHAbbU8V6I2cxJRAoEZsWgvKd2ci4Y9XEPvmReZuep+9JBqKHBE8tvHPA5PwrDozl6yU+qokhlxIsheFIfGoPJoBWcYjrjUlTfLnWnrPgFocaKtRQJraBAKs1+6GtbnNe5Z57tgCFrwbGPwFcD0dCHk/DMLp1yHfkAhjajOcOsuUqGakwIN9njIIlKTTVSmRv+IeZ09j37wEXyo7c+4diCLq0K00ccmgv/CGBzFUJUH5fmWhCA+pLmlb0jA9kc3wUZTgVhXMik7eeWMKGrIx2koZGkJLUL4rBaXb7qPhYgk6GjVwmexwtJuhv1fHUfXIswUBAh9BPcz3ZGh3p0J3u5qrKshbep7nmqcMAm9n2t3obGxD/aVyZC+OHgLjIm/SpL4XieKNKRDcfAiLossbDwwj8PiNj55IyLLMZq4pJVtB25A+D4oMd+1XBZBnNkP7UAFZejMaLhZzKoRcTnqWXlxG80U2a5dFY4TLYIWtSQvdlXJIlkd7N2D8gisfGGQHyBOSrb0H7YUSmIoksMs7uRyTz0FMMmP7eFZP9m7KIPi6IW/A0WmHtkKBqqN5SJ99C/f+fJVT3LzB8851VOzLgq5cwc9xdcWAtyrCYbTDKOiAukTGLq9VbeJylEfhFey6skvrD8aO+6DkW8nWQDtCYNE+Ae1T0A4eaYT+oRK9Lm9KnXJLplwRH0SkyFo4O8JraOfeYHAUO1L5dKalRsVxxYBn6ilun1ye5O9Tg+DrjDTDaXKwPShYk4RE2nF7O5TtRfxbociYexsN35ahW23ilHVHkxb135Yha0kM7v8rHDnL4yGIesj7EU6zHeoSMWq/LvAKnKrq/OwFC32owo5iDdIcoqNqKibLF3DRMeV4/GmQonwXeVzpzVAcSIdkdRy0p7JhokruNsszNbQ+mUz27zMDgTokraBdt26tCU3hlbx5T/vHZCsIkMS/XUPG/DvIXRmPlHe9BQH0PQVjrDX/uo7SLWkwtLSxYXeae6AqFaPqZA5X0Q0LnwK9NXGgkviqE9l8rqG9Sc1eF+1LsGcWxGWk7+n/YdA/naJSxQGHB7Tqx3p+skJ82ueeKQi+wZAn4+zqgb5ag5rj+RxwkStLxpv+0n6yb1uUigLIu7r3l6vI+vAuHl2rQo/Bxp4P2QtKwNEBEIp06UwCGWs+HHI0G9KUJphlnXBZHHxsaiqBkm/ML/PvcwGBJ0TZR9IKlQnNYdXI+TiWN/J97iyBQKUxqR9EcqKu5nQhlHlidjN5ZfqkQl4UVUGrjFxh3RxZCVFsLQz1WhY+3fuuX88PBD/JUPDWXqPmQi9KQyT9M5w3hArXJUGS2MhBGZ05oMKv8S46IeNxe9DX2xvA9+P95rtw74WA4K2cHoDT4uDSSEnSI7TVKPkzbfQzjQTh8O+CAJ/FGF8MCEMjJeqggl3SDDr6Ot7e8LOY3HeljRcKwndFKC96nK9BeNESD9LfaxCCCOVFf/UahBct8SD9PREIfFbLYodG3oaa4kZkxxUj7XY+cuJLUFlQB7lIDYfdif4gvrvVYodcpEJrkwwqqQ52qwN2aw+UYg3KsmqQGVOEjLuFKE6rhLRFgR6rwxuwDQzC7fJAKdHyb+meXmNA3zjFvHTP0GbkdsSP5NAq2vmwii+NQQ6C0+GCRt6O6qIGZMeX8DyyYopQVVDP3/fYAs+2Ubk+tSNulvM46L3HPbarTB4f9aFoVYPGoJbp0GMPXl0yKRBo8C6nG1qFHvcjs3FoxTdY884BLHlrKxb/dhM+fnsrVv1rHw4sP4es2GIYdN5SRh/o9HuZQIXDK7/F9gUn8eXWMDQ/bEVhSgUOLj+HFX/djSW/24Ilb27Bir/swu7FZxgUQ1sXT5QEcungbexafAZ7PjqLq0diYDFZg8YV1JfN0oNb5+5j75Kz2PvxWUR9lcjxBd0jwVG7xemVOL7uEla/sx9L3/bOg8aw+t/7cXTVBWTFFUEtbYPTQfHLIC+amEtp2PfxV9ix4BTO7byBDm0np+p98/T/2+vphUygxOHPvsWuRadxflcktCq9/yPD7ycFAh15kgnUOLTiPOb/Yj1m/GAVZv5oNWb/ZC3m/nQdZv9kDX+e+aNVmPfzEFw7FoMO7eOSSJp8XVkLlv9pJ2b8cBVC3juESwdv4bO/7uHP1Ba96N7073+OD763Ekve2IqwY7Ho6jCzJlCbi/5vE/f1+T/2QtQgY4EOz2ToDY1VLtIgZNphzPnpWnz8++2IDU1nwEgD9OpOhB+PxYJfbuB5+OYyPIYfrML0H3yOeb8MwbZ5J/CoqpX7Jw2vLKzDZ3/Zg5k/XIVP/7wLBffL+d7IMdBnW3cPM8W8X4SAXhf2RsHSNXpnkJ6dFAjtagOuHInmxkjwK/++B2c2X0NmdBFK0h/gfmQuzmy6xt/P/OFqHmDa7QI4erwnLf1BICEvfmMLlv1pB6/8DdOP4GRIKE5vusorfenb2xgIamfNvw4gJ6EUfX39yL9fjs/+tpsFt/A3G5EdVwJ79+iaTxLWg7x6fPTGFgY25L3DqC5u5IBQLdXh6pFoLP3dNgachLPu3YOsoV9uCcPxtZd4gSz4lRcgAvGLdaGQCdUMOAnxRMhl0H1aEN/uiYTNYg8avRt0Rlw+cpsBo4VAlE3RfrBrQhB6bE6k3s7DZ3/bg7k/W4ejKy+gLOMhdMoOFgJN2mq2M1XlJ1Vg1b/3Y8H/bsCO+afwqEbEffqDQKucVtKKv+xG+BdxENRKoVPqQUBLm1VIiypgSiLtImF/vSOcuVQl0TEV0PcknLNbw6HXdI4SQGe7CTfOxLPGzP35OpzaeAV6bSfTScSpOCz7ww7Q98v+uAM3zyai8YEQalkbt0V021zdijvn7mPVP/cxUB+9uQWXD99hG9Pr6UNOQglrMMmCFpBCpAF9738R5dVXCLBp5jFeUHuXnoVcqA5Kn/S7cUEg4cmEKuxe/CXm/3I9A/Gw6BEbX/9O6T0ZbVopEWcSsOi3m/Hx29sQeSaBbQkZah8dffD9lUxjJ0OuQC1pCxAi0QXRz4V9N/HhrzeysIlPTZ0W5vnE69m8wom2Pv/HPtSXCwIE0N/fD3GTHNvnn2RK+eT325GdUIxukw2iRinW/ucgg7Pkd1sR9kUsjHrTKANPYzC2m5B0PRvL/7SLx7Dm3wfYYaDclVap58VAICx+YzMKkipgH1HO2dnehWvHorHw15sw68drGGyTwTJSZMOfxwWBBkSG9tO/7MKHv9qAEyGhIDVzOVwsXDLW/i+r2YaHJY3DWkPaoFW0sSr7QCC+XfLmVhQlPwjKp84eF0qyKnmlzvrxamyedRydbV5DL6yTMk/PIM7+eQgiTiewgH2zod+m3ynE4t9uBj2zb8lXkAvUvDhunInDwl9vZKHsWniaNXcsD4sMcZfBjNDDt1gbiXrIMSAvjSg2KSKLFwNp5bnt10fZv9rSZmye+QVm/WgNP1dd0AS3MzgV0djHBIFWNgn42tFo5j/izwOffoW4q2lIisxmL4k8Jf/XvfBMRJ5NwMdvb2c+/vzv+1BVXMeumg8EWsVr/nMAwnppUFeW+nxY3ojP/rqbBbZp5nH2Zsjgkpbc/CqRaZEMKnk/5P75rnaNAac3XePVTg5E3OV0mI3daNd08rNEQ7SYLuyPZG0eL2tLgD4orGX7RnM/9Ol5WE02dnUFtRLs+PAU09XyP+5ERU4dA0TMQdQUF5qBpW9tYxtK3hTR5nh9jQkCUQj56mSwFvzveuZx+rv0ra34+Pfbgr7IqJKKkgqSkEidC9PLecI+EMgebJxxFJJmRdCBEQi1FU2sTdSOPwi0EhsrRUwrpCXkJRUmVw6301DRgi2zj2POz9Zh44xjEDcq4Ha6QfZkw/SjTC2kJZFfJgy7rD4AR/6lvigm+Pyfe/l35JbSIiDt6dAZEXroNs9zzk/X4fzOGxy7EHOQfTy5IZQBIFkk38xjKh3Zvv/niUHY7AVh1o9WY9FvN/EKpcmvnOBFg98+/xQq8msCNIFAIIMlaVEOC89/QOOBQCuts82Eq0fu8sIgmgg7EQOKIzyeXpBHtvxPO7DoN5tw41Q8awHZCZVEy0aUDDqDcHZyIEgYhH0MwnYGwcIgOGxO5MSVcls0n61zvkBDuYC1QSJQYP0HRzDnZ2tZ41sb5UFp13/OY4LAdORws2tKkyXDfHLjJZSmV6Mqv2FSr4YKAchIkYr6awKD0PzkINDAnXYXGisE7EHRRGmFUqTe1WnGqc1X8OGvN7CGkJfjcrjZNSWa2rPkLHtFPjqi6HU8iiA6qvTR0c+9dEQGnowzAUvezvZ5J5n6iB1ir6Qx6LFXU0CMQG7siXWh7MIGyyBMCgR6iNQr/XYhB1k0+ONrL8LYYWK/nRqe6EW/p9VLr2cFAgmBaOHwivMcUFEAmHA1Aw/Lmnjl0eSPrPwWlq5uFhbNg7y28NMxDBDRGHlc5BZT/BHsovGajRZcOXqbDTO5yhf3R3l5f6jg12K0IuZyCtsY0jAaT3NtK/Z9/DUv2E//tBMpkXksw2B9+H83pibQQzQYcu2IZ+f+bC2W/XEnStKrmePonv9Fn2nlkcHNjS/jyJRWjK+dZwUC9+N0IyEsC+SCzv9lCI/v5IbL7NYSKPHXMtDrV/JC4xLUizm1MusnazhYiziVMExX/vNgz6jDgpSbeSCjSx4QxQyFKY9tDz1PtNnaJMfqdw5g9k/Xcvxx5dgdfPKH7UyVB5adg0KkDnDB/fvxfz8uCPQgRYQxF1NBvjVFyzvmn0TC1QTPhUUAAAQ8SURBVEwQ11HESiuTBkSua2lGNQ58cg4h7x7CtePRnPCiNkhwzwoEao/6JAHQ4iAhkc9OGkArcuucExA2SAMmT4vB1m3HlSN3QMEXCY2CRQrWmqpFPHZa+RQ3tNSKcft8Eta+c4CdEXJrv90bycbYX3DEAuR5UaRPFEh9UxaAxkOBbVZMMYjSJnNNCAJlAxUiLQ6v+JY7IkNExm3XwjNIvZMHySMF6sqacfHATaz65352Tcml273wLAQNMh7DswaBxkSLg/okW0VROL2o329232APZYSiMv+LGmXYvegMawzNY8Gv1mPzjOP4elc4bp6Pw6UjN7F55nF2ycmVJsGSzRE3yoMm6igyTr2Vw16gL+dFfw8uOwdZi2oy8udnJgSBniJ1JmNMriWtIuqIXjN/QEm8NSDPafr3vck3GvzW2V9whEmDpGsYhD/vZJAm6x1R2xSsUdaT4gT/i1Z3XmI5+/G+8dBKzIovRl9f4LO+39HqlTxS4vyuG5j/ixAO6Oi3M763CjO+t5r/+tqimGLDB0dQkV0Lpz3Ifxsjjezvh1Ki4aBw9o/XsExIFhGn4znK9/U70d9JgUBehMPu4tRu5NlE7PjwNKefF/7fJlZF0gyKqrfOPcFRrLRFybEBrVi6CARxkwL7ln7FQJ7acAU6RXsAZfgGSsAJmySc4iaw6FkygkRB/he1qRLrWKAb3j8MelE+iTKodC/YRV+T/08ReEFSOQ6v+IaTjjT+D3+1EQt/s4mphPg8OTKP9xWIUsjBCHZRP9ReVmwJLwbKIlN6nxKI9P1kr0mBQI1Rh76olYRcXdCI3HvlyIouRn5iBSrzGtDaIAflSMhnHykIijYpQUepB2WrNmj+ifqhCRN/kzqL6mVQirSgDRUfoP4TIwFp5e0Q1kr5pZG182LxfybYewKUAlGVWIuawiYef1ZMCXITynleND4KukhzRs7Dvz26R5lRSu2QQ0Au88FPz6FN2TGu++vfBr2fNAgjf0ifaRCkJeMNNNjvXqXvSDsI4KnMgxZMh64Tx9dc4MwxBbPpdwrYXj3JHJ8KhCfp6L/xWaLO3MQS3ughm0BZWtJ2ny2c7JxfgzBZSY14jjSHPDQy8hTM0R7K0c8vwtzpPX064vFxP74GYVzxPL5JdoSELhUoQbZH2qxEcmQOb/CQF0fbnalRBd6oegzH4HFrge9egxAojzE/UTZW2CjGsdWXcHDFed6KJWNMaRAKFI+tush7FGN5UmM2/LSGebyG/9vuUaY2P7WUI22K0CmQo1QOAbBz4SlU5tePGZ9MJIvXmjCRhIbuk9/fWCXAxYNROLzqGxxaeQ6nNl5GcmQu12GxMQ4enkzYw2sQJhSR9wGiGSrm6tSb0Kbq4CwsFRCQnaBU/ROagYBeX4MQII6X8+E1CC9H7gG9vgYhQBwv58NrEF6O3AN6fQ1CgDhezof/B5+vIOXroNmGAAAAAElFTkSuQmCC;" vertex="1" parent="5bCI0pZCHstF0WeuNgfC-147">
          <mxGeometry x="10" y="10" width="41.28" height="40" as="geometry" />
        </mxCell>
        <mxCell id="5bCI0pZCHstF0WeuNgfC-150" value="Sidecar Proxy" style="text;html=1;strokeColor=none;fillColor=none;align=center;verticalAlign=middle;whiteSpace=wrap;rounded=0;" vertex="1" parent="1">
          <mxGeometry x="300" y="456" width="110" height="10" as="geometry" />
        </mxCell>
        <mxCell id="5bCI0pZCHstF0WeuNgfC-151" value="Conteiner Service" style="text;html=1;strokeColor=none;fillColor=none;align=center;verticalAlign=middle;whiteSpace=wrap;rounded=0;" vertex="1" parent="1">
          <mxGeometry x="443" y="456" width="110" height="10" as="geometry" />
        </mxCell>
        <mxCell id="5bCI0pZCHstF0WeuNgfC-152" value="Pod" style="text;html=1;strokeColor=none;fillColor=none;align=center;verticalAlign=middle;whiteSpace=wrap;rounded=0;dashed=1;fontStyle=1" vertex="1" parent="1">
          <mxGeometry x="510" y="356" width="40" height="20" as="geometry" />
        </mxCell>
        <mxCell id="5bCI0pZCHstF0WeuNgfC-153" value="HTTP/2" style="endArrow=classic;startArrow=classic;html=1;entryX=0;entryY=0.5;entryDx=0;entryDy=0;exitX=1;exitY=0.5;exitDx=0;exitDy=0;strokeColor=#00CC00;" edge="1" parent="1" source="5bCI0pZCHstF0WeuNgfC-148" target="5bCI0pZCHstF0WeuNgfC-146">
          <mxGeometry width="50" height="50" relative="1" as="geometry">
            <mxPoint x="190" y="556" as="sourcePoint" />
            <mxPoint x="240" y="506" as="targetPoint" />
          </mxGeometry>
        </mxCell>
        <mxCell id="5bCI0pZCHstF0WeuNgfC-154" value="HTTP/*" style="endArrow=classic;startArrow=classic;html=1;entryX=0;entryY=0.5;entryDx=0;entryDy=0;exitX=1;exitY=0.5;exitDx=0;exitDy=0;strokeColor=#00CC00;" edge="1" parent="1" source="5bCI0pZCHstF0WeuNgfC-157" target="5bCI0pZCHstF0WeuNgfC-148">
          <mxGeometry width="50" height="50" relative="1" as="geometry">
            <mxPoint x="470" y="426" as="sourcePoint" />
            <mxPoint x="559.3600000000001" y="426" as="targetPoint" />
          </mxGeometry>
        </mxCell>
        <mxCell id="5bCI0pZCHstF0WeuNgfC-155" value="" style="group" vertex="1" connectable="0" parent="1">
          <mxGeometry x="130" y="386" width="60" height="60" as="geometry" />
        </mxCell>
        <mxCell id="5bCI0pZCHstF0WeuNgfC-156" value="" style="group" vertex="1" connectable="0" parent="5bCI0pZCHstF0WeuNgfC-155">
          <mxGeometry width="60" height="60" as="geometry" />
        </mxCell>
        <mxCell id="5bCI0pZCHstF0WeuNgfC-157" value="" style="strokeColor=#0000FF;fillColor=#ffffff;shadow=1;strokeWidth=1;rounded=1;absoluteArcSize=1;arcSize=2;fontSize=10;fontColor=#9E9E9E;align=left;html=1;" vertex="1" parent="5bCI0pZCHstF0WeuNgfC-156">
          <mxGeometry width="60" height="60" as="geometry" />
        </mxCell>
        <mxCell id="5bCI0pZCHstF0WeuNgfC-158" value="" style="shape=image;html=1;verticalAlign=top;verticalLabelPosition=bottom;labelBackgroundColor=#ffffff;imageAspect=0;aspect=fixed;image=https://cdn1.iconfinder.com/data/icons/hawcons/32/699144-icon-68-document-file-app-128.png;dashed=1;strokeColor=#4D4D4D;fillColor=none;" vertex="1" parent="5bCI0pZCHstF0WeuNgfC-156">
          <mxGeometry x="8" y="6" width="44" height="44" as="geometry" />
        </mxCell>
        <mxCell id="5bCI0pZCHstF0WeuNgfC-159" style="edgeStyle=orthogonalEdgeStyle;rounded=0;orthogonalLoop=1;jettySize=auto;html=1;exitX=0.5;exitY=1;exitDx=0;exitDy=0;" edge="1" parent="1" source="5bCI0pZCHstF0WeuNgfC-150" target="5bCI0pZCHstF0WeuNgfC-150">
          <mxGeometry relative="1" as="geometry" />
        </mxCell>
        <mxCell id="u4US_uD0GNkUaNKt2F8F-168" value="" style="shape=image;verticalLabelPosition=bottom;labelBackgroundColor=#ffffff;verticalAlign=top;aspect=fixed;imageAspect=0;image=data:image/png,iVBORw0KGgoAAAANSUhEUgAAAH4AAABCCAYAAACRm2JeAAAUmElEQVR4Ae1cB3dbx5XOT9nY6s2SWyzJRbYly91rxyWuOfa6bdaR7bWze7zexD2xvdlVIkc+LnE2RSRIkOiVBAmxgVUsokhRIin2ClYUAmCRvj3fiAM9gABIQCStLPHOmTMo783cud/cO3fuvfN+gPS1JjnwgzU56vSgkQZ+jU6CNPBp4NcoB9bosNMSnwZ+jXJgjQ47LfFp4NcoB9bosNMSnwZ+jXJgjQ47LfFp4NcoB9bosNMSnwZ+ZThw4cIFhGbn4AmF4J4KYNA/hX6fHwO+KQz7pzAeDCI4M4O58+cTEnD+wgUEZmYwOhXAyNRUghIQ90wEQ/BNT2N6dhakIdHFtv2haYwtoW3S6w1NC5rPL0JzdJ+kY1rBiwGfH32CH1OCLxybf3oas+fPYxGSo5tO+vuKS/zs7Bzqu3vxZXUdXjDYsF+lwx6VDrerdPhJrhEfl1aipO0cvIFgQuID09OwNzbhkNGGV/RWvKy3xChW/LPRhjcs+fjEVYPsUy1o6u3D7NxcQvCnpqehKq/Cm+a8GG2yHyteMVjxmjkPvypy4buGJrjazsEfDCIZ8Gfm5nCypxdHKk/gGZ0Ft2RqsSvbhBtUetyTpcebdic0TS0Y8ngXFYSEzFrCnysGfGh2Ft2jY3jveBnu1NtxrdqMLSo91mfosC5DJ+pNmXpck23EXo0Vh/KcqO3tw0wcCfUHQ/hjRbVg0jaVHlsyY5etKj22qQy4Rm3CDbkW3K6z421HERoHhuANhWKyhL9/bC/AnhxTwnbZ9o5sI67LMWOv1oonTA4UtLZj1D8Vs135I7XZoNeHI64qHNDn4Tq1SfCCfLgqQ4erM3TYkKnDtiwDbsy14FmzA67ObniDiYVBtp9KvSLAU3Wf7BvAa45iXK82YX2mHv+QoYtbfpihExPgWWsBClvbBUDR6tkXDOKr8ipszdSC9ydqT/kfmcqJ8KQpH/ltHZiMoVkmgyG8Z3NgV7Zxye2Sho2Zetynt+FYwymM+P2ItaBQI7SPjuGDkgrclGNelBeknQLyiCkf1rPtF5eUFdD7yw4818uu8Qn8oqgclOhkQNqkMuB+vQ0NfQNiPVfO5FSBl5OAE+AZswP1/YML1GgqwCvbvUNng+n0GVDLRU9YTzCIIxU1+FGOecmTim1vIviGPLSNjol2lbxYjs9JAc9BXSzxuw7NzCCj4RR2q00LBspJcHWmPlyuylwouQToN6UV6Pd4IzqJB7yyzXWZerCwD6rQ6ElHyf+w2AVPIABOUHnFA162LdtVti2BZ71RpcczlgIMeX3gOi4v8qq8vQP3G/MEPcpnlG0LemPwgsvK+0UujAUCMbWJ7CeVesnAc53qHhtDeds5jCVY03onJvGc3YkNUeqdavGWHDP+1VGE3zpL8a6jCA8a87ExMxIgMuQOrRWV80aZHFQs4Hkv1/IPCorxu6IyHC124XBRKf7TWYoHDXnYkRWpujkZaG9Ud3RFABQP+D3ZBnxgL8DXRaWi/L6oDIfyi7BfZxN2igSS7XLd19Y2YHJ+XSbotFfeL6vCDVHSzrX9llwL/s1RhK+Ly/BJYQkeNOZhsypySSQPD2rMaBocWnapXxLwBH3E58cvi8vxU5sThe2dCM7MxpyF1uYW7NfbI6SNKvwxYx7y2zvRM+mB2+cXEl3Z249D9kLsVJsi7t+eZcCXlScijLF4wN+ktaJuyI0Bjxdjfj9GfX4M+nw40dePd4pcuDY7UvMQhKPVdQjMzMo5hVjAc1Ldq7Ggum8A4z6/KGyb9NvaOvCEKR/rFUBtyTLitTwnBrnWX7gglhP3pAfPWAuxVWWI0H6355qR2diMPtLs8wtNUdrRheftTqxXCAIn1HaVHvkd3WI7HCZ4GT4sCjwHQcboW1qxJ9cCgvKspQBn3CNivxlNwx+q63BTriVioLtzTFA3nxWGCtuTF9fElqFh3KOPlCBKxC9KKsU+X94bE/hMHfbo7Gib9CAwe0nF8hkaVTV9A3jM7IigZVuWEYeOuzChUPfxgH9Ib8Pp0XFJQrieCAaRceq0MEgJDiV/g8qAuwx5aB0dE6BT5bcPu3GfzooNCmOUE+pQYSnao9r1BkPQzLd5tULtcxn444l6uBNo2TBhSXxYFHg6QGp7evGQ3h62SGn9flBcLizkaMfLB9UNuC4K+Ef1NlR39y4gi89O+v14xVYotlFSdbJ+8bhLSJd8KFng+RwdRO+Wn4hYX2lw/sRgR//EZFjdJws8J2xtVw9uzjGLbRjp5fq/V21ETXcPpmdmhKPm9NAwDmgsWJehDU8+TurDJ05iLGp3MTd3Hq1DbtyqtWGjQkNclanHbwqL0T/pkaxYlnpR4DvGxvGWs1RsXThbOUjOyD05ZphOnwU9ZMrrP6rqsSsnUuKfNuXhZG+/8jbxmVLpDwTEusm9uRL45wtKwL7llQrwBPRwVZ2QOEk7pe/+XBM6FNZyssDTIXR2YFDYIrRdBE8ydLhepUNxewfobKK3snloGPsVwJOGTRk6fFN7MmwLyPFRE9KTd6fRgc0K24QG8If5TtB2Ws4rIfCcuer6k7hfZxUOF8k8ufY8pbeioadXGDGSKAK/Mwr4Z0z5aOyLATzdsMEg3nOW4s4cE3ZnGcLlTWcZescnZLNIBXi6ib+qqcPmDG1Y6ilxd6kNaBsZFUsPO0gW+Lm5OXQMu3FAZxPbLgn8rkwdClrPYSoUH/jNmTp8V9e4AHjSQZftUzYn9mutuEVtEuW2HBOOHC/FsDdylxNmTIofFgW+vLUNvz1eiu0qQwTzDmQb8GdXBc72D6QMPGc5Ld/qc50wNDQit+5kuNAl6lGow1SAp0fu65r6BcDvzzGh9TKB7xTA20HDVQJ/TYYW+Wfb4Q+F4kq8BJ77++iLsYjS1jbYm07D0th8sZxqRnNvn2gz+v7L+Z4QeDZMYIpb23Gj2iT2xxzkpkwdntLbMDzpiQCd9ycj8ckQngrwlOQvquqwUbGnp8QfUBvnJf6iZZ+sxFPVt1ONR0m8AL41deCT4cfl3vt3DTwNn73CqvcusOrJmLFgEB9X1wtfuFymuMY/oDGjc3RMRO54X7LAUxgY/NmnsQjbR0r8tZla4XKeSlHiLxfMZJ7/uwb+hwm2c2QC1fnLjuIIH8FmlUG4bgc9XhG1SwV4hk65ljMOQU8jgV+XqcOPsvRwdXQimMC4S6TqkwHucu/9fwc87YbZ2VnhJPpLfSNui9paMhr4TnEFPMFQ2K++VInnLsQXCglr/S1nGTiJpCZhIOo2jQWN/YNi+Ytn1S8VeI5jqSWVSZAS8Awh/lhrQcPgEDomPOjx+sLl56XV2B7lp5dWPV0303NzcAeC6PH50U1PWJwyGgwhpPB7x1zjM3S4UWOFa9CN1kmvaK/T40N9bz/+q9gltlsMA1MiWQjS7lwLMutOCuNLMiwe8Ac1FhT3DYp2SWv7+ASMjU34J1shrsm6ZOyy7U1ZBjxqKUSPxysASwX4GYZv/VPo8vjQMeldWvF40enxos/nF1trJnEs5UoJeDJw3TEttv8tBztEycWOv10sG44tDJtK4OfOXxDZN49bCrA9y4ht2SYxSThRWHaoTcL3Tv/7vzjL0LnIPl6CyX0vXaZbs03YlGUE975SEiXorGnY0dXaMTIa4XWMBTzvpw3Bttnulmwj1qn04rdYbTOg8kWJS2TxkPGpAD8SDOFeS6Hoj30nU27NNuBIVa1wW68Y8JLhV4n9MffIl0ospkjgORv7vD4RkCAI9AcQpFjlhSU4cCSo7FNZ5O/R9T6NFcaW1gWu43jAy3HKtqPbk98ZQn3UYEf3xGQ4mJIK8O5gCHdbCrE5ibwASQOXmoM6G+xnWiMij/EmwaISz61LRUcX9tIDFRVxk50uVkcD/4AhD1cdu+TGjPU8PXfnliDxsZ5V/kbQaHjdqrHgq5oGERzi2qm8EgGvbCvWZ2blPGzMg7X1nMghkOHe1QaetDHR488nm5cHeA6ke9KL52xOEZTgdohqPl6RQQslkyTw9M33e334R4MdG49pwm3EemapwAtg51O5qEWklS37Z2hzX64ZWQ2nRBSMBlr0FQ/4S21rsT5Diw0ZWuFyZVz/WnrWtFa8bHeisrtPGH3K6ZQK8FT1D1gKw3wmr+MV2i7RY2Xk8duGZQKeTApMz6CyswuvmOy4R6XFHRm5uD0jJ2bZrnCPSuYrgR/y+fGq0YY7j118ft+xXGw7pgl7BeUzSwWejNmn0uIA6VJpsVMR2WJbDCh9xuSLOPl2HF884Omoui1Ti7tUWhzM0uK+LB2eUOvxc3MejlTX4Tjz7by+mAmXqQDPuAdDuz/WmHG/2pCw3J1twC5VZIbTsgNPqWdEiqnFTJEenpqKW94oq8EOdWSakQSeEsF1ngNk5GzQ50fX2DhesTlFnpkEnfVSgKemuDnHhNohN3o9PrSNT+DDitoIhw23XE9bneib9IARsFhXLOAp7fdoLajoH8KwGHNAjH1kKoDxQBAekWI9uyCNS7afCvBzDIGHQhgJXOQzeR2vcKw/yy+OSAhZduDlYJZSJ+OyldG51x1FIiEyFeDpPeuYmERwdhZT0zMwNZ8RWy3Gsdke7RJmz1b1DcA/PRNzCPGAjxePj9lI1I+pAB/VRMKvDOu+7XRhvcJWWjPAc41TAs+o2dlht4huyeAJJZefv6mujZvMsPLAX/IjLNWBkxB1uqPXMvBU9UrgyazRQABv2wpE/rvUIJT6Z4124YCJtuj5zMoDf3EHw0mYBn4+PYqJGMul6gki1TnVPQ8mkNEEnxPkBrVJ+NeZBRx9pYGP5kgK37/PNZ7k8mxa6/AI7tPZwmlRQt1n6nG4ul4kO0QP60oBfmpmBtkn6vFNWQWOlrhE+bLEhZLmFpESTrppaHcODuFoaQXu0VgidkM8iPGcwY4/l1fBPe86jh6r/L6oA0feuNT6+waeBuPk1BRedRRjR9al7FaC/1J+Ec64RxcM5fsAXqZhK4lhGPkxSwH2ZBvBEC/L9Zk6fJpXiIH51CsCP+73ixTym7KNYa0mDFnGItQmfFtehfGpqXAQStmH/LzswL8bJ+euIU7OnW8+544eMLkms36+oBQdY4lTr2Kt8RwYmcODiQzIKNu8U2OBs7Nnwb57NYHflKHFt7UnMaHILpJgDAeCOGhemHP3K5sDPYqcO9opld29eMRSIBJg5ZK2NcuAn+UdxwATZBQBLtm+sl524D+qWZhl+4jOhsquHmW/4jM9eRN+P160FgijRwnSS8fLRaRLPhQrOhcPePoLys914G5jfgTw1AD/XVohTrkqjbyVAJ5LTsuQG3dpL+YryrEx4/bwiYaFWbbnz+PcyCj2iayeS5qKgZpfFxYLP4TkBWueTzQ1t+DWHGZGXbRj6Apnfj75uti17MDzOPTu3EgHDg2rvzY0iSREJcO5967vGxApTEr3I92R/15SAffUpVOoyQDPQQ95vXjZVihO6kim87DCExYHeicnI5izEsBT4jrcI3hQZ4uggdL5an4RWqKWHJ6M1TY2Y2e2QQApaeaO5LvaBoxE5dVTqzHX/nBVrdjB7M01Q1XfGPNQaKxJsOzAO1rO4kDUSZoNKj3u1dmQ1dSC1rFxcYKkc2ISee0d+KnFIQiX6ooDZqz72+pa4f+WRCcLPFOcj1bV4lpFpIt93KK1wdpyVuQFyLZXAnhK3ajnYoyDx58lkKx5wISANQ27RR5D29g4dM1n8JRQ3ZdCytRoO7MMYnmKdcSbuQ3t7hG8ZCvE/5TXoGticsEyJscYXS878DwH/qL9eDjtWA6Y0nZdthFPWwvxVp4Tz9uc2Ec1GBU7JzgML9YNDIVTo0h0ssBTszi7ekUKtKSBNV9E8JGrWrzVQmqflQCeAUBGNj9y1YitpZIGAsoYwkPGfHGU/ElrIW7WWEQKu/I+hnsf5olZ9+iCpFYJJDVL68AgBicmwiFh+V+ietmBZyKitrkFt0Spe+WA4n0m6Ayh/r7yBBjMUV6xgI/23Cnv52cez3rBVhghbTwA8YQxD308STN/7GolgGf/nFhVnV14wJgfse2KN/7o33kQ87uaOhEXiB7b5X5fduA5WB73ea+sErTUObujBxTv+5YsAx4354NHjxgUUl6xgI9n3MnneEDhk8raiJM0fOYmtUloFL4jh9dKAc+2eSbui4oa7I46MRuPB/J3GqKv2wrnj14vbqzJMS+1Xnbg2TFBa3WP4JfFFdiTy/NlkVs1OThZEwxmrPINGjXdveIFQFINy4GkAry0fBk7l0Eb9rk1y4gjpRVh3/1KAk+/QufYBD53VeHmXIvghdKekTyQNf+jXfKGoxj188tdNC8kTy6nXhHgSRDXHr7E5w/lNXjIXIDdGosw4uir5gEHxrp5Xo4RpYOGPPy62IWWYTcYaIk1UJ5O+VPlCexRG8X6yGxZMugBvR3dk56I5EnJEMH08Qk8YswX/fAZlhtyTMKo5JFn9kXD6VOHE7dprdilNoXL0+Z8EeqV7aVa09Ab9vnxvzV1eNjswB6NBTuzjdgieHEpueP6HLMwjD8tKQcNPm4JV+paMeAlwRw0jwtrms/gHUcRnswx4iG1Ho+p9XjdnIc/NTShia8+mVe78rnomj52vpTh82IXPi4qw0dFZfi4yIWjFdViqzMTJ9bONGpd/Sl8VlIunuFznxS58LuySrHd4kSjZnA0twinz2dlVWD5vKwaf609ucDWiKYrme/kRefQMHSnz+J9Zyme15jwiEqLx7N1Irnj2xMN4q1YfAtXrMmfTF+L3bviwIvki7nzoB+aSQYMJ44EAhgNBEVih296RmytuC9NdJERlAC+Y47ZNGyLNddp8V64OA8zuYFn0pg4wWeUz1ErsVu2zeWJbfE+WUjzUtOV43S/4Gda+pIe8oJ2CCOKTHIR7+Wbm1tSztyChpP8YcWBT5Ke9O2rxIE08KvE6CutmzTwVxoiq0RPGvhVYvSV1k0a+CsNkVWiJw38KjH6SusmDfyVhsgq0ZMGfpUYfaV1kwb+SkNklehJA79KjL7SukkDf6Uhskr0/B+u5M+6AaaohAAAAABJRU5ErkJggg==;" parent="1" vertex="1">
          <mxGeometry x="411.36" y="141" width="57.27" height="30" as="geometry" />
        </mxCell>
        <mxCell id="u4US_uD0GNkUaNKt2F8F-166" value="" style="strokeColor=#006633;fillColor=#ffffff;shadow=1;strokeWidth=1;rounded=1;absoluteArcSize=1;arcSize=2;fontSize=10;fontColor=#9E9E9E;align=left;html=1;" parent="1" vertex="1">
          <mxGeometry x="385" y="126" width="105" height="60" as="geometry" />
        </mxCell>
        <mxCell id="5bCI0pZCHstF0WeuNgfC-178" value="" style="shape=image;verticalLabelPosition=bottom;labelBackgroundColor=#ffffff;verticalAlign=top;aspect=fixed;imageAspect=0;image=data:image/png,iVBORw0KGgoAAAANSUhEUgAAAOsAAABMCAYAAACME0CDAAAN6ElEQVR4Ae2dTatmRxHH83n8AvkCMVud2SYhO01AN3E2unACLpSZrNQ44C43KwWvL+BiRAXRRA1Z5C58ZcBAXNyFIjqg4OaR30BPanrqX119znnunMephkP3eeuu+lf9u6v79HPvM4dKhUAhcBIIPHMSUpaQhUAhcCiylhMUAieCQJH1RAxVYhYCRdbygULgRBAosp6IoUrMQqDIWj5QCJwIAkXWEzFUiVkIFFnLBwqBE0GgyHoihioxC4Eia/lAIXAiCBRZT8RQJWYhUGQtHygETgSBIuuJGKrELASKrOUDhcCJIFBkPRFDlZiFwBRZLy8vD+++8+7h7bO3Hx4XH1wUioVAISAQuHfv3kOuwJvz8/MD15akFFkh6es3Xz88/9zzjx2vfOaVJe3WO4XAU4HAjdduPMYZeHTjCzemSTskK73A9U9fdxt80OhrN54K0EvJQmAJAoqscAdezYyyIVnv378fEpUGX/3sqykd/vWf/x7e+/Dv4ZGqaOcPNT3f/MWfD/1x9tu/PNB/5yqctHh//ce/Qx/DB68yvfjCi3Kgm+EPModkPf/eedgQjd388k1Xd5z2Sz+6OHziKz+eOp69/ZPDy2e/OeDYAD+TfvrHy6m2Itk++Y2fH9Ahk3juBxcfHa5/+5fp9nkWHftEXegfybb2Hhj/4fKffdNHOf/a3d+7uoAvndna9P0PPlqEFxgj28/+dDktwue+8/5jOn3+u++79cAPeBIdd+/edd/tL4ZkVUM481QWlhh5VdrK4SB8lrQvn/36MRDXOPZ7H/5NqffwOs/g/EvbeasjLPUtrWvmvS/+8PgLg5nO85srCbuFzek46GwzCV9UOEcd4Du/eucAbzzS3r51O9N0PLIqsrLgNEpKoSXXIQOGH6UtDGflG5EVotnnl5SfFFnB6tjJG4F6jLBtNoLx5N3S5gwwI1miznTkL/DGIys8y6RwZPV6guzqb2+ULc6jngtltzQc8kYdBOHXMXSKnGGL9lodEOnYKRtxgOXStLXNmZ5EhI3sMyIrOnqc2oSs3siarbg5hZfjKIQ/9uDas7fuhgQgXInS1oZT4TfXR46ILshjj16/577u63NtYu7r4Zu51o/oEa5L7mVC4Cbnmo5D2Rysv3r3d4/4GM/2Nmgy2FzNP8FhLVnXcCocWb2Ks6u/VnlbjuYo9Gjct8/35agXVoajDuoF6OyhiIrBmO/1crVzZIh6WO7hRDynRm5wiOTMhN/Uj8604dW1hIAz70QYNaxsHo1mUbvK5mCsEnio95pMPOMlrrdn+ly9Y+vxOJUdAKfJSsydSb0i7TyjUBRiRr2wMgAj1VYpWmCIZNuq/VaP0hWcI0dt73s5C4bssuGDPQflzPqEV5cXeYAPR/MFm0edsFd/u6ZwiAaF9m7UoShbriXr0easZ2+duRPipmyUW0PYcgZE6lVGoC6V1Dtc3ypFHcloTr2VDNQDIS2uthxFBUoGtfmFD/fZTwutbhUCExEo/BQ5Wp0qVzY/lp8dg6ybrAYrsmZ2XVjnseUsiMrg1KWSMtzSkcZrB/mtPrbsPX+sa1vKwYj60gsvuR0zIwGEjT7T9TqqEYtOJIpMloTCyuZZP5slX/R8j0N/rlaD4VkmhWGwImtm8751YlveAkSl2FrDqXrt9S1JYuudLUcj62xd2NMLz+y1rEPRNguB1uaU7VRELaAtCYW3sHkvazuHmH1aQ1aFcxbbkKyq8qeZrNHizhJn650he66cFEebTapTtmTNhmpMBZqz29xGNwrDJaGwwiE7KICVldOWr4qsbJjIpN2SVc1t1OcOlN3CcCPQlDNiZBZVrmreqnRFjtm0JVnViG9xiTCcDYUVDlmyRmH5VZE1M/hh05CsyohXMWdV2xVtD907pTIcH7q3THQYtgfuy+x5nXW6WfmUrkvIqiIoO7KyTzyTvBDY62AVhrPRicIhS1Y1KICj7WCa7mvCYHhjMW3lO2/eadWHuSSrWnTgVwSZ1DtwO8+EOipM4oN2tNKpDEfbEMgDP6NL/0y0+NX0ZJRlo3gkb1/vzHmk60w97VlvZ01zpmufupZaYFIjJgtOfVIjsPds/649Vzhkyao6DXzNSxFZMx00WDZcW84CXuYT2WNkhaR3vnVH/jQu28M2p+3zaBcSjs3ukf6ddg6Jo6QM196PcjsiUB4RW614em2gkxdSRbqM7ild7ULOqA57n17f+zkX17JhGgTx9Kdz65Pq8OjkZpLCYURWiBX9Kkx1GhFZMzZW0Sqr8fAuilofIStEheWN8X2eXWQAbM9o7Vr7JQ2A8ftCfioWkZT3FHjWsMpwrd2ZfNQeshMlzNRJaJ8xqNVJlZWuXF+asD/fVAnLOOiYuZZN6ieC6n219c8jt6pD4RCRFRsoWZs9VUS0lqzoAY96btlzRdhHyKrmLgzd2RWrBmpTeos8Ar61R64Mt0SGrNOrcC5qk84qEzJZ3fqy0jUrd1/f2nOc29M5mvao6GTUUVpZFQ5ER/a3qkRK/AxOrYVY2SN/U3ry/kxHDNe8SAbSqkjmEbKqCTAVvHHrjale1iq/tMx8YgYAZbgl7c84PTKquY9qm559FGpbp+zLStcZufs615yrdYZowUgt7syEwgoHhfvo+gi/LUZWohX1N83SZMVY0S/b2cSfDYtGoGTuExrPjEBbGm4mFGtOjiFnZMApZ/Rr7ZCrdkbOZuvYsqzCShVO0ja6Kz/I4q9wUPVG1xnRR/ZYS1b4A49s2GvLjLaKY4+MrM14DMPerwOoNLvMHIEycw8nGAHY5I4Mh/EBOnNEDtbainLayM5n0W9JUro+CbJGoWH7u1Pq728pkmdDYYXDjI8xd44iAGuftWRVC0ysxo+mmi5Zm3Decj4LUJmkwGK1EuJAQMJAlFdzl1YH84xMUoZ7Eg6MvDjxSDd0zDqKxWBPuqoQuNlvSZ4NhRUOmTbxRbDPDgbgv5as3qebaDS1Ng/Jqv5gmpoA24oVWGryDnGjeV/GoZXhnhRZGx7opvbDgtOS0XVPuipZlA9kr2dC4aht7tmDaAf/w5eWRk9ryApvbMjbyoy2mRSSVVV+DLIiLD2cWs6Pvs82RZXhuP6kE7pFndFM744ux9KV+dLFxcWDI/OhHrmz5Jt9LhMKKxyinW5rfCEi62jBUPFpFP42eUOy8s2tsd/mxyIrQtHrKaOOelpluD2QFd2icBEnmEnH0NWbT7FqqRY8RvZSdsxeX9NBqwhuBmPv2Yis3vP2miJrdqNRSFbPeJD2mGRFOTW6jnraYziwBXttOTL0VmTNOLinBwuHtkO2Zf5qhErRQhqRBCMcxFEHNlX2htSj0UrZ/JTIukkYrMiaCY9U75kBUTnAyBGV4bi+h3QVZAX32RR9X2+k9UK1KAQedaxWxgiXUTirbJ7xMytDthzJmulwG54234Ss6ptrRrE1ZI1C4WhhQBluL2RVu50YWWaT0nUJWdV0xzqU98lO2WnJ/mQ1n1/aQZ8SWbPbeMMwWH1rzTjWGrJG3+1wEJWUA++BrOjE5wgPFyKJ2aR0XUJWFUFZsnp/gU9FQJGNlJ6qI0OfKBRWOOyVrN4WQw9bD6dpsvLtNZM8p+RaFkTV00aOrQwHSSKDZ/SxzxDioQs7rOz+U/uMLRMeMUIoTDLhk62PsiIKbcymzMjqhWqq84miHyVbFF5GobCyedbPlDzqeiRnxo7eAHg0smYrVo6ZBbERoq8n+liuDNfXkT2HjH1iRbp/H5nYnN//1zjej0hKPUtCRmQCx16Odt7LPDpXf8jLjqz9L0E8HJa23+RTC01RKKxsnvWz1nY2Pymy8ru7TGqG6/MsiGo+RH2q51aG62WYOe97yyhcm6mXZ3FOpcsI4y3JSltRKOzNV1Vnig2WJlUnWKnISNk862ezsq4l65WGwfS2x/50A4DRSqOaEynDzZLIPt+Tdas2IKpywIwDbRkGt/YIh+0WUxxLfQNUIXAUsrZ2VB6N1qpeZY89klV9Z81Gq+GcVf1Ilv3B5+fn4Z+isA5vyzMgKkOosEg9b9ufLfdk3WJkRc41RMXZla7M9Y+dkF3hONq4MpJNhcJqS6bCYcbPRjLZ+0tGVqYZ8EX9YQf1P45tu5RDsvJtzc5bvLJadlag987fC2TPGV3Vnlr7XCtHYZRyrtF1L0xlZFdOEtXHOyoqaDpkc5zRa0uNQNl6M8+pDmvp/Nu2GdnQs4XCYcbPbPujMjJ4uOPvXlIDnuWS9w3bqyskKy/YsMg20MqESl5CKQDjAFC22i0dTXBwjIiz4yie0ZoMrT3abO3P5MjJuxwZeW17yNcfyIv8kcxN9pmcjqzp1WTm/CoSuLS2yWl/7Yhq5bZ12zI6e4lnms3W+JlXt3et6Y/OtEuuZPNWfxt3yLMhMHIMycoqoDcpbg3ONOYpXtcKgf9nBCKyMhBG+657XIZk5QUqZLXQI22RtYe0zguBjxFQZGWFfYao1Jgi68dNHx4sKrGq1Y7MPmH7fpULgacJAQjJKjuDHQflpZyZJuvTBHTpWgjsCYEi656sUbIUAgECRdYAnLpVCOwJgSLrnqxRshQCAQJF1gCculUI7AmBIuuerFGyFAIBAkXWAJy6VQjsCYEi656sUbIUAgECRdYAnLpVCOwJgSLrnqxRshQCAQJF1gCculUI7AmBIuuerFGyFAIBAkXWAJy6VQjsCYEi656sUbIUAgECRdYAnLpVCOwJgSLrnqxRshQCAQJF1gCculUI7AmBIuuerFGyFAIBAv8DkvcoesW/wJMAAAAASUVORK5CYII=;" vertex="1" parent="1">
          <mxGeometry x="393.62" y="141" width="92.76" height="30" as="geometry" />
        </mxCell>
      </root>
    </mxGraphModel>
  </diagram>
</mxfile>
